<?xml version="1.0" encoding="UTF-8" standalone="no"?><!DOCTYPE svg PUBLIC "-//W3C//DTD SVG 1.1//EN" "http://www.w3.org/Graphics/SVG/1.1/DTD/svg11.dtd"><svg width="100%" height="100%" viewBox="0 0 20834 6946" version="1.1" xmlns="http://www.w3.org/2000/svg" xmlns:xlink="http://www.w3.org/1999/xlink" xml:space="preserve" xmlns:serif="http://www.serif.com/" style="fill-rule:evenodd;clip-rule:evenodd;stroke-linejoin:round;stroke-miterlimit:2;"><g><path d="M5495.825,4792.338c89.025,0 161.292,66.683 161.292,148.817c0,82.133 -72.267,148.817 -161.292,148.817c-89.025,0 -161.304,-66.683 -161.304,-148.817c0,-82.133 72.279,-148.817 161.304,-148.817Z" style="fill:#c68f39;"/><path d="M5495.825,4792.338c89.025,0 161.292,66.683 161.292,148.817c0,82.133 -72.267,148.817 -161.292,148.817c-89.025,0 -161.304,-66.683 -161.304,-148.817c0,-82.133 72.279,-148.817 161.304,-148.817Z" style="fill:#c68f39;"/><path d="M5495.825,4792.338c89.025,0 161.292,66.683 161.292,148.817c0,82.133 -72.267,148.817 -161.292,148.817c-89.025,0 -161.304,-66.683 -161.304,-148.817c0,-82.133 72.279,-148.817 161.304,-148.817Z" style="fill:#c68f39;"/><path d="M5495.825,4792.338c89.025,0 161.292,66.683 161.292,148.817c0,82.133 -72.267,148.817 -161.292,148.817c-89.025,0 -161.304,-66.683 -161.304,-148.817c0,-82.133 72.279,-148.817 161.304,-148.817Z" style="fill:#c68f39;"/><path d="M5495.825,3991.021c89.025,0 161.292,66.683 161.292,148.829c0,82.121 -72.267,148.804 -161.292,148.804c-89.025,0 -161.304,-66.683 -161.304,-148.804c0,-82.146 72.279,-148.829 161.304,-148.829Z" style="fill:#c68f39;"/><path d="M5495.825,3991.021c89.025,0 161.292,66.683 161.292,148.829c0,82.121 -72.267,148.804 -161.292,148.804c-89.025,0 -161.304,-66.683 -161.304,-148.804c0,-82.146 72.279,-148.829 161.304,-148.829Z" style="fill:#c68f39;"/><path d="M5495.825,3991.021c89.025,0 161.292,66.683 161.292,148.829c0,82.121 -72.267,148.804 -161.292,148.804c-89.025,0 -161.304,-66.683 -161.304,-148.804c0,-82.146 72.279,-148.829 161.304,-148.829Z" style="fill:#c68f39;"/><path d="M5495.825,3991.021c89.025,0 161.292,66.683 161.292,148.829c0,82.121 -72.267,148.804 -161.292,148.804c-89.025,0 -161.304,-66.683 -161.304,-148.804c0,-82.146 72.279,-148.829 161.304,-148.829Z" style="fill:#c68f39;"/><path d="M5495.825,3189.696c89.025,0 161.292,66.683 161.292,148.817c0,82.133 -72.267,148.817 -161.292,148.817c-89.025,0 -161.304,-66.683 -161.304,-148.817c0,-82.133 72.279,-148.817 161.304,-148.817Z" style="fill:#c68f39;"/><path d="M5495.825,3189.696c89.025,0 161.292,66.683 161.292,148.817c0,82.133 -72.267,148.817 -161.292,148.817c-89.025,0 -161.304,-66.683 -161.304,-148.817c0,-82.133 72.279,-148.817 161.304,-148.817Z" style="fill:#c68f39;"/><path d="M5495.825,3189.696c89.025,0 161.292,66.683 161.292,148.817c0,82.133 -72.267,148.817 -161.292,148.817c-89.025,0 -161.304,-66.683 -161.304,-148.817c0,-82.133 72.279,-148.817 161.304,-148.817Z" style="fill:#c68f39;"/><path d="M5495.825,3189.696c89.025,0 161.292,66.683 161.292,148.817c0,82.133 -72.267,148.817 -161.292,148.817c-89.025,0 -161.304,-66.683 -161.304,-148.817c0,-82.133 72.279,-148.817 161.304,-148.817Z" style="fill:#c68f39;"/><path d="M5495.825,2388.383c89.025,0 161.292,66.683 161.292,148.817c0,82.133 -72.267,148.817 -161.292,148.817c-89.025,0 -161.304,-66.683 -161.304,-148.817c0,-82.133 72.279,-148.817 161.304,-148.817Z" style="fill:#c68f39;"/><path d="M5495.825,2388.383c89.025,0 161.292,66.683 161.292,148.817c0,82.133 -72.267,148.817 -161.292,148.817c-89.025,0 -161.304,-66.683 -161.304,-148.817c0,-82.133 72.279,-148.817 161.304,-148.817Z" style="fill:#c68f39;"/><path d="M5495.825,2388.383c89.025,0 161.292,66.683 161.292,148.817c0,82.133 -72.267,148.817 -161.292,148.817c-89.025,0 -161.304,-66.683 -161.304,-148.817c0,-82.133 72.279,-148.817 161.304,-148.817Z" style="fill:#c68f39;"/><path d="M5495.825,2388.383c89.025,0 161.292,66.683 161.292,148.817c0,82.133 -72.267,148.817 -161.292,148.817c-89.025,0 -161.304,-66.683 -161.304,-148.817c0,-82.133 72.279,-148.817 161.304,-148.817Z" style="fill:#c68f39;"/><path d="M5495.825,1598.513c89.025,0 161.292,66.683 161.292,148.817c0,82.133 -72.267,148.817 -161.292,148.817c-89.025,0 -161.304,-66.683 -161.304,-148.817c0,-82.133 72.279,-148.817 161.304,-148.817Z" style="fill:#c68f39;"/><path d="M5495.825,1598.513c89.025,0 161.292,66.683 161.292,148.817c0,82.133 -72.267,148.817 -161.292,148.817c-89.025,0 -161.304,-66.683 -161.304,-148.817c0,-82.133 72.279,-148.817 161.304,-148.817Z" style="fill:#c68f39;"/><path d="M5495.825,1598.513c89.025,0 161.292,66.683 161.292,148.817c0,82.133 -72.267,148.817 -161.292,148.817c-89.025,0 -161.304,-66.683 -161.304,-148.817c0,-82.133 72.279,-148.817 161.304,-148.817Z" style="fill:#c68f39;"/><path d="M5495.825,1598.513c89.025,0 161.292,66.683 161.292,148.817c0,82.133 -72.267,148.817 -161.292,148.817c-89.025,0 -161.304,-66.683 -161.304,-148.817c0,-82.133 72.279,-148.817 161.304,-148.817Z" style="fill:#c68f39;"/><path d="M5495.825,808.638c89.025,0 161.292,66.683 161.292,148.817c0,82.146 -72.267,148.829 -161.292,148.829c-89.025,0 -161.304,-66.683 -161.304,-148.829c0,-82.133 72.279,-148.817 161.304,-148.817Z" style="fill:#c68f39;"/><path d="M5495.825,808.638c89.025,0 161.292,66.683 161.292,148.817c0,82.146 -72.267,148.829 -161.292,148.829c-89.025,0 -161.304,-66.683 -161.304,-148.829c0,-82.133 72.279,-148.817 161.304,-148.817Z" style="fill:#c68f39;"/><path d="M5495.825,808.638c89.025,0 161.292,66.683 161.292,148.817c0,82.146 -72.267,148.829 -161.292,148.829c-89.025,0 -161.304,-66.683 -161.304,-148.829c0,-82.133 72.279,-148.817 161.304,-148.817Z" style="fill:#c68f39;"/><path d="M5495.825,808.638c89.025,0 161.292,66.683 161.292,148.817c0,82.146 -72.267,148.829 -161.292,148.829c-89.025,0 -161.304,-66.683 -161.304,-148.829c0,-82.133 72.279,-148.817 161.304,-148.817Z" style="fill:#c68f39;"/><path d="M6327.142,4792.338c89.025,0 161.304,66.683 161.304,148.817c0,82.133 -72.279,148.817 -161.304,148.817c-89.025,0 -161.304,-66.683 -161.304,-148.817c0,-82.133 72.279,-148.817 161.304,-148.817Z" style="fill:#c68f39;"/><path d="M6327.142,4792.338c89.025,0 161.304,66.683 161.304,148.817c0,82.133 -72.279,148.817 -161.304,148.817c-89.025,0 -161.304,-66.683 -161.304,-148.817c0,-82.133 72.279,-148.817 161.304,-148.817Z" style="fill:#c68f39;"/><path d="M6327.142,4792.338c89.025,0 161.304,66.683 161.304,148.817c0,82.133 -72.279,148.817 -161.304,148.817c-89.025,0 -161.304,-66.683 -161.304,-148.817c0,-82.133 72.279,-148.817 161.304,-148.817Z" style="fill:#c68f39;"/><path d="M6327.142,4792.338c89.025,0 161.304,66.683 161.304,148.817c0,82.133 -72.279,148.817 -161.304,148.817c-89.025,0 -161.304,-66.683 -161.304,-148.817c0,-82.133 72.279,-148.817 161.304,-148.817Z" style="fill:#c68f39;"/><path d="M6327.142,3991.021c89.025,0 161.304,66.683 161.304,148.829c0,82.121 -72.279,148.804 -161.304,148.804c-89.025,0 -161.304,-66.683 -161.304,-148.804c0,-82.146 72.279,-148.829 161.304,-148.829Z" style="fill:#c68f39;"/><path d="M6327.142,3991.021c89.025,0 161.304,66.683 161.304,148.829c0,82.121 -72.279,148.804 -161.304,148.804c-89.025,0 -161.304,-66.683 -161.304,-148.804c0,-82.146 72.279,-148.829 161.304,-148.829Z" style="fill:#c68f39;"/><path d="M6327.142,3991.021c89.025,0 161.304,66.683 161.304,148.829c0,82.121 -72.279,148.804 -161.304,148.804c-89.025,0 -161.304,-66.683 -161.304,-148.804c0,-82.146 72.279,-148.829 161.304,-148.829Z" style="fill:#c68f39;"/><path d="M6327.142,3991.021c89.025,0 161.304,66.683 161.304,148.829c0,82.121 -72.279,148.804 -161.304,148.804c-89.025,0 -161.304,-66.683 -161.304,-148.804c0,-82.146 72.279,-148.829 161.304,-148.829Z" style="fill:#c68f39;"/><path d="M6327.142,3189.696c89.025,0 161.304,66.683 161.304,148.817c0,82.133 -72.279,148.817 -161.304,148.817c-89.025,0 -161.304,-66.683 -161.304,-148.817c0,-82.133 72.279,-148.817 161.304,-148.817Z" style="fill:#c68f39;"/><path d="M6327.142,3189.696c89.025,0 161.304,66.683 161.304,148.817c0,82.133 -72.279,148.817 -161.304,148.817c-89.025,0 -161.304,-66.683 -161.304,-148.817c0,-82.133 72.279,-148.817 161.304,-148.817Z" style="fill:#c68f39;"/><path d="M6327.142,3189.696c89.025,0 161.304,66.683 161.304,148.817c0,82.133 -72.279,148.817 -161.304,148.817c-89.025,0 -161.304,-66.683 -161.304,-148.817c0,-82.133 72.279,-148.817 161.304,-148.817Z" style="fill:#c68f39;"/><path d="M6327.142,3189.696c89.025,0 161.304,66.683 161.304,148.817c0,82.133 -72.279,148.817 -161.304,148.817c-89.025,0 -161.304,-66.683 -161.304,-148.817c0,-82.133 72.279,-148.817 161.304,-148.817Z" style="fill:#c68f39;"/><path d="M6327.142,2388.383c89.025,0 161.304,66.683 161.304,148.817c0,82.133 -72.279,148.817 -161.304,148.817c-89.025,0 -161.304,-66.683 -161.304,-148.817c0,-82.133 72.279,-148.817 161.304,-148.817Z" style="fill:#c68f39;"/><path d="M6327.142,2388.383c89.025,0 161.304,66.683 161.304,148.817c0,82.133 -72.279,148.817 -161.304,148.817c-89.025,0 -161.304,-66.683 -161.304,-148.817c0,-82.133 72.279,-148.817 161.304,-148.817Z" style="fill:#c68f39;"/><path d="M6327.142,2388.383c89.025,0 161.304,66.683 161.304,148.817c0,82.133 -72.279,148.817 -161.304,148.817c-89.025,0 -161.304,-66.683 -161.304,-148.817c0,-82.133 72.279,-148.817 161.304,-148.817Z" style="fill:#c68f39;"/><path d="M6327.142,2388.383c89.025,0 161.304,66.683 161.304,148.817c0,82.133 -72.279,148.817 -161.304,148.817c-89.025,0 -161.304,-66.683 -161.304,-148.817c0,-82.133 72.279,-148.817 161.304,-148.817Z" style="fill:#c68f39;"/><path d="M6327.142,1598.513c89.025,0 161.304,66.683 161.304,148.817c0,82.133 -72.279,148.817 -161.304,148.817c-89.025,0 -161.304,-66.683 -161.304,-148.817c0,-82.133 72.279,-148.817 161.304,-148.817Z" style="fill:#c68f39;"/><path d="M6327.142,1598.513c89.025,0 161.304,66.683 161.304,148.817c0,82.133 -72.279,148.817 -161.304,148.817c-89.025,0 -161.304,-66.683 -161.304,-148.817c0,-82.133 72.279,-148.817 161.304,-148.817Z" style="fill:#c68f39;"/><path d="M6327.142,1598.513c89.025,0 161.304,66.683 161.304,148.817c0,82.133 -72.279,148.817 -161.304,148.817c-89.025,0 -161.304,-66.683 -161.304,-148.817c0,-82.133 72.279,-148.817 161.304,-148.817Z" style="fill:#c68f39;"/><path d="M6327.142,1598.513c89.025,0 161.304,66.683 161.304,148.817c0,82.133 -72.279,148.817 -161.304,148.817c-89.025,0 -161.304,-66.683 -161.304,-148.817c0,-82.133 72.279,-148.817 161.304,-148.817Z" style="fill:#c68f39;"/><path d="M6327.142,808.638c89.025,0 161.304,66.683 161.304,148.817c0,82.146 -72.279,148.829 -161.304,148.829c-89.025,0 -161.304,-66.683 -161.304,-148.829c0,-82.133 72.279,-148.817 161.304,-148.817Z" style="fill:#c68f39;"/><path d="M6327.142,808.638c89.025,0 161.304,66.683 161.304,148.817c0,82.146 -72.279,148.829 -161.304,148.829c-89.025,0 -161.304,-66.683 -161.304,-148.829c0,-82.133 72.279,-148.817 161.304,-148.817Z" style="fill:#c68f39;"/><path d="M6327.142,808.638c89.025,0 161.304,66.683 161.304,148.817c0,82.146 -72.279,148.829 -161.304,148.829c-89.025,0 -161.304,-66.683 -161.304,-148.829c0,-82.133 72.279,-148.817 161.304,-148.817Z" style="fill:#c68f39;"/><path d="M6327.142,808.638c89.025,0 161.304,66.683 161.304,148.817c0,82.146 -72.279,148.829 -161.304,148.829c-89.025,0 -161.304,-66.683 -161.304,-148.829c0,-82.133 72.279,-148.817 161.304,-148.817Z" style="fill:#c68f39;"/><path d="M7108.838,4792.338c89.025,0 161.304,66.683 161.304,148.817c0,82.133 -72.279,148.817 -161.304,148.817c-89.025,0 -161.304,-66.683 -161.304,-148.817c0,-82.133 72.279,-148.817 161.304,-148.817Z" style="fill:#c68f39;"/><path d="M7108.838,4792.338c89.025,0 161.304,66.683 161.304,148.817c0,82.133 -72.279,148.817 -161.304,148.817c-89.025,0 -161.304,-66.683 -161.304,-148.817c0,-82.133 72.279,-148.817 161.304,-148.817Z" style="fill:#c68f39;"/><path d="M7108.838,4792.338c89.025,0 161.304,66.683 161.304,148.817c0,82.133 -72.279,148.817 -161.304,148.817c-89.025,0 -161.304,-66.683 -161.304,-148.817c0,-82.133 72.279,-148.817 161.304,-148.817Z" style="fill:#c68f39;"/><path d="M7108.838,4792.338c89.025,0 161.304,66.683 161.304,148.817c0,82.133 -72.279,148.817 -161.304,148.817c-89.025,0 -161.304,-66.683 -161.304,-148.817c0,-82.133 72.279,-148.817 161.304,-148.817Z" style="fill:#c68f39;"/><path d="M7108.838,3991.021c89.025,0 161.304,66.683 161.304,148.829c0,82.121 -72.279,148.804 -161.304,148.804c-89.025,0 -161.304,-66.683 -161.304,-148.804c0,-82.146 72.279,-148.829 161.304,-148.829Z" style="fill:#c68f39;"/><path d="M7108.838,3991.021c89.025,0 161.304,66.683 161.304,148.829c0,82.121 -72.279,148.804 -161.304,148.804c-89.025,0 -161.304,-66.683 -161.304,-148.804c0,-82.146 72.279,-148.829 161.304,-148.829Z" style="fill:#c68f39;"/><path d="M7108.838,3991.021c89.025,0 161.304,66.683 161.304,148.829c0,82.121 -72.279,148.804 -161.304,148.804c-89.025,0 -161.304,-66.683 -161.304,-148.804c0,-82.146 72.279,-148.829 161.304,-148.829Z" style="fill:#c68f39;"/><path d="M7108.838,3991.021c89.025,0 161.304,66.683 161.304,148.829c0,82.121 -72.279,148.804 -161.304,148.804c-89.025,0 -161.304,-66.683 -161.304,-148.804c0,-82.146 72.279,-148.829 161.304,-148.829Z" style="fill:#c68f39;"/><path d="M7108.838,3189.696c89.025,0 161.304,66.683 161.304,148.817c0,82.133 -72.279,148.817 -161.304,148.817c-89.025,0 -161.304,-66.683 -161.304,-148.817c0,-82.133 72.279,-148.817 161.304,-148.817Z" style="fill:#c68f39;"/><path d="M7108.838,3189.696c89.025,0 161.304,66.683 161.304,148.817c0,82.133 -72.279,148.817 -161.304,148.817c-89.025,0 -161.304,-66.683 -161.304,-148.817c0,-82.133 72.279,-148.817 161.304,-148.817Z" style="fill:#c68f39;"/><path d="M7108.838,3189.696c89.025,0 161.304,66.683 161.304,148.817c0,82.133 -72.279,148.817 -161.304,148.817c-89.025,0 -161.304,-66.683 -161.304,-148.817c0,-82.133 72.279,-148.817 161.304,-148.817Z" style="fill:#c68f39;"/><path d="M7108.838,3189.696c89.025,0 161.304,66.683 161.304,148.817c0,82.133 -72.279,148.817 -161.304,148.817c-89.025,0 -161.304,-66.683 -161.304,-148.817c0,-82.133 72.279,-148.817 161.304,-148.817Z" style="fill:#c68f39;"/><path d="M7108.838,2388.383c89.025,0 161.304,66.683 161.304,148.817c0,82.133 -72.279,148.817 -161.304,148.817c-89.025,0 -161.304,-66.683 -161.304,-148.817c0,-82.133 72.279,-148.817 161.304,-148.817Z" style="fill:#c68f39;"/><path d="M7108.838,2388.383c89.025,0 161.304,66.683 161.304,148.817c0,82.133 -72.279,148.817 -161.304,148.817c-89.025,0 -161.304,-66.683 -161.304,-148.817c0,-82.133 72.279,-148.817 161.304,-148.817Z" style="fill:#c68f39;"/><path d="M7108.838,2388.383c89.025,0 161.304,66.683 161.304,148.817c0,82.133 -72.279,148.817 -161.304,148.817c-89.025,0 -161.304,-66.683 -161.304,-148.817c0,-82.133 72.279,-148.817 161.304,-148.817Z" style="fill:#c68f39;"/><path d="M7108.838,2388.383c89.025,0 161.304,66.683 161.304,148.817c0,82.133 -72.279,148.817 -161.304,148.817c-89.025,0 -161.304,-66.683 -161.304,-148.817c0,-82.133 72.279,-148.817 161.304,-148.817Z" style="fill:#c68f39;"/><path d="M7108.838,1598.513c89.025,0 161.304,66.683 161.304,148.817c0,82.133 -72.279,148.817 -161.304,148.817c-89.025,0 -161.304,-66.683 -161.304,-148.817c0,-82.133 72.279,-148.817 161.304,-148.817Z" style="fill:#c68f39;"/><path d="M7108.838,1598.513c89.025,0 161.304,66.683 161.304,148.817c0,82.133 -72.279,148.817 -161.304,148.817c-89.025,0 -161.304,-66.683 -161.304,-148.817c0,-82.133 72.279,-148.817 161.304,-148.817Z" style="fill:#c68f39;"/><path d="M7108.838,1598.513c89.025,0 161.304,66.683 161.304,148.817c0,82.133 -72.279,148.817 -161.304,148.817c-89.025,0 -161.304,-66.683 -161.304,-148.817c0,-82.133 72.279,-148.817 161.304,-148.817Z" style="fill:#c68f39;"/><path d="M7108.838,1598.513c89.025,0 161.304,66.683 161.304,148.817c0,82.133 -72.279,148.817 -161.304,148.817c-89.025,0 -161.304,-66.683 -161.304,-148.817c0,-82.133 72.279,-148.817 161.304,-148.817Z" style="fill:#c68f39;"/><path d="M7855.788,2388.704c89.025,0 161.304,66.683 161.304,148.817c0,82.133 -72.279,148.817 -161.304,148.817c-89.025,0 -161.304,-66.683 -161.304,-148.817c0,-82.133 72.279,-148.817 161.304,-148.817Z" style="fill:#c68f39;"/><path d="M7108.838,808.638c89.025,0 161.304,66.683 161.304,148.817c0,82.146 -72.279,148.829 -161.304,148.829c-89.025,0 -161.304,-66.683 -161.304,-148.829c0,-82.133 72.279,-148.817 161.304,-148.817Z" style="fill:#c68f39;"/><path d="M7108.838,808.638c89.025,0 161.304,66.683 161.304,148.817c0,82.146 -72.279,148.829 -161.304,148.829c-89.025,0 -161.304,-66.683 -161.304,-148.829c0,-82.133 72.279,-148.817 161.304,-148.817Z" style="fill:#c68f39;"/><path d="M7108.838,808.638c89.025,0 161.304,66.683 161.304,148.817c0,82.146 -72.279,148.829 -161.304,148.829c-89.025,0 -161.304,-66.683 -161.304,-148.829c0,-82.133 72.279,-148.817 161.304,-148.817Z" style="fill:#c68f39;"/><path d="M7855.788,1598.513c89.025,0 161.304,66.683 161.304,148.817c0,82.133 -72.279,148.817 -161.304,148.817c-89.025,0 -161.304,-66.683 -161.304,-148.817c0,-82.133 72.279,-148.817 161.304,-148.817Z" style="fill:#c68f39;"/><path d="M7855.788,1598.513c89.025,0 161.304,66.683 161.304,148.817c0,82.133 -72.279,148.817 -161.304,148.817c-89.025,0 -161.304,-66.683 -161.304,-148.817c0,-82.133 72.279,-148.817 161.304,-148.817Z" style="fill:#c68f39;"/><path d="M7855.788,1598.513c89.025,0 161.304,66.683 161.304,148.817c0,82.133 -72.279,148.817 -161.304,148.817c-89.025,0 -161.304,-66.683 -161.304,-148.817c0,-82.133 72.279,-148.817 161.304,-148.817Z" style="fill:#c68f39;"/><path d="M7855.788,1598.513c89.025,0 161.304,66.683 161.304,148.817c0,82.133 -72.279,148.817 -161.304,148.817c-89.025,0 -161.304,-66.683 -161.304,-148.817c0,-82.133 72.279,-148.817 161.304,-148.817Z" style="fill:#c68f39;"/><path d="M7855.788,808.638c89.025,0 161.304,66.683 161.304,148.817c0,82.146 -72.279,148.829 -161.304,148.829c-89.025,0 -161.304,-66.683 -161.304,-148.829c0,-82.133 72.279,-148.817 161.304,-148.817Z" style="fill:#c68f39;"/><path d="M7855.788,808.638c89.025,0 161.304,66.683 161.304,148.817c0,82.146 -72.279,148.829 -161.304,148.829c-89.025,0 -161.304,-66.683 -161.304,-148.829c0,-82.133 72.279,-148.817 161.304,-148.817Z" style="fill:#c68f39;"/><path d="M7855.788,808.638c89.025,0 161.304,66.683 161.304,148.817c0,82.146 -72.279,148.829 -161.304,148.829c-89.025,0 -161.304,-66.683 -161.304,-148.829c0,-82.133 72.279,-148.817 161.304,-148.817Z" style="fill:#c68f39;"/><path d="M7855.788,808.638c89.025,0 161.304,66.683 161.304,148.817c0,82.146 -72.279,148.829 -161.304,148.829c-89.025,0 -161.304,-66.683 -161.304,-148.829c0,-82.133 72.279,-148.817 161.304,-148.817Z" style="fill:#c68f39;"/><path d="M3068.242,4792.338c89.025,0 161.292,66.683 161.292,148.817c0,82.133 -72.267,148.817 -161.292,148.817c-89.025,0 -161.304,-66.683 -161.304,-148.817c0,-82.133 72.279,-148.817 161.304,-148.817Z" style="fill:#c68f39;"/><path d="M3068.242,4792.338c89.025,0 161.292,66.683 161.292,148.817c0,82.133 -72.267,148.817 -161.292,148.817c-89.025,0 -161.304,-66.683 -161.304,-148.817c0,-82.133 72.279,-148.817 161.304,-148.817Z" style="fill:#c68f39;"/><path d="M3068.242,4792.338c89.025,0 161.292,66.683 161.292,148.817c0,82.133 -72.267,148.817 -161.292,148.817c-89.025,0 -161.304,-66.683 -161.304,-148.817c0,-82.133 72.279,-148.817 161.304,-148.817Z" style="fill:#c68f39;"/><path d="M3068.242,4792.338c89.025,0 161.292,66.683 161.292,148.817c0,82.133 -72.267,148.817 -161.292,148.817c-89.025,0 -161.304,-66.683 -161.304,-148.817c0,-82.133 72.279,-148.817 161.304,-148.817Z" style="fill:#c68f39;"/><path d="M3068.242,3991.021c89.025,0 161.292,66.683 161.292,148.829c0,82.121 -72.267,148.804 -161.292,148.804c-89.025,0 -161.304,-66.683 -161.304,-148.804c0,-82.146 72.279,-148.829 161.304,-148.829Z" style="fill:#c68f39;"/><path d="M3068.242,3991.021c89.025,0 161.292,66.683 161.292,148.829c0,82.121 -72.267,148.804 -161.292,148.804c-89.025,0 -161.304,-66.683 -161.304,-148.804c0,-82.146 72.279,-148.829 161.304,-148.829Z" style="fill:#c68f39;"/><path d="M3068.242,3991.021c89.025,0 161.292,66.683 161.292,148.829c0,82.121 -72.267,148.804 -161.292,148.804c-89.025,0 -161.304,-66.683 -161.304,-148.804c0,-82.146 72.279,-148.829 161.304,-148.829Z" style="fill:#c68f39;"/><path d="M3068.242,3991.021c89.025,0 161.292,66.683 161.292,148.829c0,82.121 -72.267,148.804 -161.292,148.804c-89.025,0 -161.304,-66.683 -161.304,-148.804c0,-82.146 72.279,-148.829 161.304,-148.829Z" style="fill:#c68f39;"/><path d="M3068.242,3189.696c89.025,0 161.292,66.683 161.292,148.817c0,82.133 -72.267,148.817 -161.292,148.817c-89.025,0 -161.304,-66.683 -161.304,-148.817c0,-82.133 72.279,-148.817 161.304,-148.817Z" style="fill:#c68f39;"/><path d="M3068.242,3189.696c89.025,0 161.292,66.683 161.292,148.817c0,82.133 -72.267,148.817 -161.292,148.817c-89.025,0 -161.304,-66.683 -161.304,-148.817c0,-82.133 72.279,-148.817 161.304,-148.817Z" style="fill:#c68f39;"/><path d="M3068.242,3189.696c89.025,0 161.292,66.683 161.292,148.817c0,82.133 -72.267,148.817 -161.292,148.817c-89.025,0 -161.304,-66.683 -161.304,-148.817c0,-82.133 72.279,-148.817 161.304,-148.817Z" style="fill:#c68f39;"/><path d="M3068.242,3189.696c89.025,0 161.292,66.683 161.292,148.817c0,82.133 -72.267,148.817 -161.292,148.817c-89.025,0 -161.304,-66.683 -161.304,-148.817c0,-82.133 72.279,-148.817 161.304,-148.817Z" style="fill:#c68f39;"/><path d="M3068.242,2388.383c89.025,0 161.292,66.683 161.292,148.817c0,82.133 -72.267,148.817 -161.292,148.817c-89.025,0 -161.304,-66.683 -161.304,-148.817c0,-82.133 72.279,-148.817 161.304,-148.817Z" style="fill:#c68f39;"/><path d="M3068.242,2388.383c89.025,0 161.292,66.683 161.292,148.817c0,82.133 -72.267,148.817 -161.292,148.817c-89.025,0 -161.304,-66.683 -161.304,-148.817c0,-82.133 72.279,-148.817 161.304,-148.817Z" style="fill:#c68f39;"/><path d="M3068.242,2388.383c89.025,0 161.292,66.683 161.292,148.817c0,82.133 -72.267,148.817 -161.292,148.817c-89.025,0 -161.304,-66.683 -161.304,-148.817c0,-82.133 72.279,-148.817 161.304,-148.817Z" style="fill:#c68f39;"/><path d="M3068.242,2388.383c89.025,0 161.292,66.683 161.292,148.817c0,82.133 -72.267,148.817 -161.292,148.817c-89.025,0 -161.304,-66.683 -161.304,-148.817c0,-82.133 72.279,-148.817 161.304,-148.817Z" style="fill:#c68f39;"/><path d="M3068.242,1598.513c89.025,0 161.292,66.683 161.292,148.817c0,82.133 -72.267,148.817 -161.292,148.817c-89.025,0 -161.304,-66.683 -161.304,-148.817c0,-82.133 72.279,-148.817 161.304,-148.817Z" style="fill:#c68f39;"/><path d="M3068.242,1598.513c89.025,0 161.292,66.683 161.292,148.817c0,82.133 -72.267,148.817 -161.292,148.817c-89.025,0 -161.304,-66.683 -161.304,-148.817c0,-82.133 72.279,-148.817 161.304,-148.817Z" style="fill:#c68f39;"/><path d="M3068.242,1598.513c89.025,0 161.292,66.683 161.292,148.817c0,82.133 -72.267,148.817 -161.292,148.817c-89.025,0 -161.304,-66.683 -161.304,-148.817c0,-82.133 72.279,-148.817 161.304,-148.817Z" style="fill:#c68f39;"/><path d="M3068.242,1598.513c89.025,0 161.292,66.683 161.292,148.817c0,82.133 -72.267,148.817 -161.292,148.817c-89.025,0 -161.304,-66.683 -161.304,-148.817c0,-82.133 72.279,-148.817 161.304,-148.817Z" style="fill:#c68f39;"/><path d="M3068.242,808.638c89.025,0 161.292,66.683 161.292,148.817c0,82.146 -72.267,148.829 -161.292,148.829c-89.025,0 -161.304,-66.683 -161.304,-148.829c0,-82.133 72.279,-148.817 161.304,-148.817Z" style="fill:#c68f39;"/><path d="M3068.242,808.638c89.025,0 161.292,66.683 161.292,148.817c0,82.146 -72.267,148.829 -161.292,148.829c-89.025,0 -161.304,-66.683 -161.304,-148.829c0,-82.133 72.279,-148.817 161.304,-148.817Z" style="fill:#c68f39;"/><path d="M3068.242,808.638c89.025,0 161.292,66.683 161.292,148.817c0,82.146 -72.267,148.829 -161.292,148.829c-89.025,0 -161.304,-66.683 -161.304,-148.829c0,-82.133 72.279,-148.817 161.304,-148.817Z" style="fill:#c68f39;"/><path d="M3068.242,808.638c89.025,0 161.292,66.683 161.292,148.817c0,82.146 -72.267,148.829 -161.292,148.829c-89.025,0 -161.304,-66.683 -161.304,-148.829c0,-82.133 72.279,-148.817 161.304,-148.817Z" style="fill:#c68f39;"/><path d="M3899.558,4792.338c89.025,0 161.304,66.683 161.304,148.817c0,82.133 -72.279,148.817 -161.304,148.817c-89.025,0 -161.304,-66.683 -161.304,-148.817c0,-82.133 72.279,-148.817 161.304,-148.817Z" style="fill:#c68f39;"/><path d="M3899.558,4792.338c89.025,0 161.304,66.683 161.304,148.817c0,82.133 -72.279,148.817 -161.304,148.817c-89.025,0 -161.304,-66.683 -161.304,-148.817c0,-82.133 72.279,-148.817 161.304,-148.817Z" style="fill:#c68f39;"/><path d="M3899.558,4792.338c89.025,0 161.304,66.683 161.304,148.817c0,82.133 -72.279,148.817 -161.304,148.817c-89.025,0 -161.304,-66.683 -161.304,-148.817c0,-82.133 72.279,-148.817 161.304,-148.817Z" style="fill:#c68f39;"/><path d="M3899.558,4792.338c89.025,0 161.304,66.683 161.304,148.817c0,82.133 -72.279,148.817 -161.304,148.817c-89.025,0 -161.304,-66.683 -161.304,-148.817c0,-82.133 72.279,-148.817 161.304,-148.817Z" style="fill:#c68f39;"/><path d="M3899.558,3991.021c89.025,0 161.304,66.683 161.304,148.829c0,82.121 -72.279,148.804 -161.304,148.804c-89.025,0 -161.304,-66.683 -161.304,-148.804c0,-82.146 72.279,-148.829 161.304,-148.829Z" style="fill:#c68f39;"/><path d="M3899.558,3991.021c89.025,0 161.304,66.683 161.304,148.829c0,82.121 -72.279,148.804 -161.304,148.804c-89.025,0 -161.304,-66.683 -161.304,-148.804c0,-82.146 72.279,-148.829 161.304,-148.829Z" style="fill:#c68f39;"/><path d="M3899.558,3991.021c89.025,0 161.304,66.683 161.304,148.829c0,82.121 -72.279,148.804 -161.304,148.804c-89.025,0 -161.304,-66.683 -161.304,-148.804c0,-82.146 72.279,-148.829 161.304,-148.829Z" style="fill:#c68f39;"/><path d="M3899.558,3991.021c89.025,0 161.304,66.683 161.304,148.829c0,82.121 -72.279,148.804 -161.304,148.804c-89.025,0 -161.304,-66.683 -161.304,-148.804c0,-82.146 72.279,-148.829 161.304,-148.829Z" style="fill:#c68f39;"/><path d="M3899.558,3189.696c89.025,0 161.304,66.683 161.304,148.817c0,82.133 -72.279,148.817 -161.304,148.817c-89.025,0 -161.304,-66.683 -161.304,-148.817c0,-82.133 72.279,-148.817 161.304,-148.817Z" style="fill:#c68f39;"/><path d="M3899.558,3189.696c89.025,0 161.304,66.683 161.304,148.817c0,82.133 -72.279,148.817 -161.304,148.817c-89.025,0 -161.304,-66.683 -161.304,-148.817c0,-82.133 72.279,-148.817 161.304,-148.817Z" style="fill:#c68f39;"/><path d="M3899.558,3189.696c89.025,0 161.304,66.683 161.304,148.817c0,82.133 -72.279,148.817 -161.304,148.817c-89.025,0 -161.304,-66.683 -161.304,-148.817c0,-82.133 72.279,-148.817 161.304,-148.817Z" style="fill:#c68f39;"/><path d="M3899.558,3189.696c89.025,0 161.304,66.683 161.304,148.817c0,82.133 -72.279,148.817 -161.304,148.817c-89.025,0 -161.304,-66.683 -161.304,-148.817c0,-82.133 72.279,-148.817 161.304,-148.817Z" style="fill:#c68f39;"/><path d="M3899.558,2388.383c89.025,0 161.304,66.683 161.304,148.817c0,82.133 -72.279,148.817 -161.304,148.817c-89.025,0 -161.304,-66.683 -161.304,-148.817c0,-82.133 72.279,-148.817 161.304,-148.817Z" style="fill:#c68f39;"/><path d="M3899.558,2388.383c89.025,0 161.304,66.683 161.304,148.817c0,82.133 -72.279,148.817 -161.304,148.817c-89.025,0 -161.304,-66.683 -161.304,-148.817c0,-82.133 72.279,-148.817 161.304,-148.817Z" style="fill:#c68f39;"/><path d="M3899.558,2388.383c89.025,0 161.304,66.683 161.304,148.817c0,82.133 -72.279,148.817 -161.304,148.817c-89.025,0 -161.304,-66.683 -161.304,-148.817c0,-82.133 72.279,-148.817 161.304,-148.817Z" style="fill:#c68f39;"/><path d="M3899.558,2388.383c89.025,0 161.304,66.683 161.304,148.817c0,82.133 -72.279,148.817 -161.304,148.817c-89.025,0 -161.304,-66.683 -161.304,-148.817c0,-82.133 72.279,-148.817 161.304,-148.817Z" style="fill:#c68f39;"/><path d="M3899.558,1598.513c89.025,0 161.304,66.683 161.304,148.817c0,82.133 -72.279,148.817 -161.304,148.817c-89.025,0 -161.304,-66.683 -161.304,-148.817c0,-82.133 72.279,-148.817 161.304,-148.817Z" style="fill:#c68f39;"/><path d="M3899.558,1598.513c89.025,0 161.304,66.683 161.304,148.817c0,82.133 -72.279,148.817 -161.304,148.817c-89.025,0 -161.304,-66.683 -161.304,-148.817c0,-82.133 72.279,-148.817 161.304,-148.817Z" style="fill:#c68f39;"/><path d="M3899.558,1598.513c89.025,0 161.304,66.683 161.304,148.817c0,82.133 -72.279,148.817 -161.304,148.817c-89.025,0 -161.304,-66.683 -161.304,-148.817c0,-82.133 72.279,-148.817 161.304,-148.817Z" style="fill:#c68f39;"/><path d="M3899.558,1598.513c89.025,0 161.304,66.683 161.304,148.817c0,82.133 -72.279,148.817 -161.304,148.817c-89.025,0 -161.304,-66.683 -161.304,-148.817c0,-82.133 72.279,-148.817 161.304,-148.817Z" style="fill:#c68f39;"/><path d="M3899.558,808.638c89.025,0 161.304,66.683 161.304,148.817c0,82.146 -72.279,148.829 -161.304,148.829c-89.025,0 -161.304,-66.683 -161.304,-148.829c0,-82.133 72.279,-148.817 161.304,-148.817Z" style="fill:#c68f39;"/><path d="M3899.558,808.638c89.025,0 161.304,66.683 161.304,148.817c0,82.146 -72.279,148.829 -161.304,148.829c-89.025,0 -161.304,-66.683 -161.304,-148.829c0,-82.133 72.279,-148.817 161.304,-148.817Z" style="fill:#c68f39;"/><path d="M3899.558,808.638c89.025,0 161.304,66.683 161.304,148.817c0,82.146 -72.279,148.829 -161.304,148.829c-89.025,0 -161.304,-66.683 -161.304,-148.829c0,-82.133 72.279,-148.817 161.304,-148.817Z" style="fill:#c68f39;"/><path d="M3899.558,808.638c89.025,0 161.304,66.683 161.304,148.817c0,82.146 -72.279,148.829 -161.304,148.829c-89.025,0 -161.304,-66.683 -161.304,-148.829c0,-82.133 72.279,-148.817 161.304,-148.817Z" style="fill:#c68f39;"/><path d="M4681.254,4792.338c89.025,0 161.304,66.683 161.304,148.817c0,82.133 -72.279,148.817 -161.304,148.817c-89.025,0 -161.304,-66.683 -161.304,-148.817c0,-82.133 72.279,-148.817 161.304,-148.817Z" style="fill:#c68f39;"/><path d="M4681.254,4792.338c89.025,0 161.304,66.683 161.304,148.817c0,82.133 -72.279,148.817 -161.304,148.817c-89.025,0 -161.304,-66.683 -161.304,-148.817c0,-82.133 72.279,-148.817 161.304,-148.817Z" style="fill:#c68f39;"/><path d="M4681.254,4792.338c89.025,0 161.304,66.683 161.304,148.817c0,82.133 -72.279,148.817 -161.304,148.817c-89.025,0 -161.304,-66.683 -161.304,-148.817c0,-82.133 72.279,-148.817 161.304,-148.817Z" style="fill:#c68f39;"/><path d="M4681.254,4792.338c89.025,0 161.304,66.683 161.304,148.817c0,82.133 -72.279,148.817 -161.304,148.817c-89.025,0 -161.304,-66.683 -161.304,-148.817c0,-82.133 72.279,-148.817 161.304,-148.817Z" style="fill:#c68f39;"/><path d="M4681.254,3991.021c89.025,0 161.304,66.683 161.304,148.829c0,82.121 -72.279,148.804 -161.304,148.804c-89.025,0 -161.304,-66.683 -161.304,-148.804c0,-82.146 72.279,-148.829 161.304,-148.829Z" style="fill:#c68f39;"/><path d="M4681.254,3991.021c89.025,0 161.304,66.683 161.304,148.829c0,82.121 -72.279,148.804 -161.304,148.804c-89.025,0 -161.304,-66.683 -161.304,-148.804c0,-82.146 72.279,-148.829 161.304,-148.829Z" style="fill:#c68f39;"/><path d="M4681.254,3991.021c89.025,0 161.304,66.683 161.304,148.829c0,82.121 -72.279,148.804 -161.304,148.804c-89.025,0 -161.304,-66.683 -161.304,-148.804c0,-82.146 72.279,-148.829 161.304,-148.829Z" style="fill:#c68f39;"/><path d="M4681.254,3991.021c89.025,0 161.304,66.683 161.304,148.829c0,82.121 -72.279,148.804 -161.304,148.804c-89.025,0 -161.304,-66.683 -161.304,-148.804c0,-82.146 72.279,-148.829 161.304,-148.829Z" style="fill:#c68f39;"/><path d="M4681.254,3189.696c89.025,0 161.304,66.683 161.304,148.817c0,82.133 -72.279,148.817 -161.304,148.817c-89.025,0 -161.304,-66.683 -161.304,-148.817c0,-82.133 72.279,-148.817 161.304,-148.817Z" style="fill:#c68f39;"/><path d="M4681.254,3189.696c89.025,0 161.304,66.683 161.304,148.817c0,82.133 -72.279,148.817 -161.304,148.817c-89.025,0 -161.304,-66.683 -161.304,-148.817c0,-82.133 72.279,-148.817 161.304,-148.817Z" style="fill:#c68f39;"/><path d="M4681.254,3189.696c89.025,0 161.304,66.683 161.304,148.817c0,82.133 -72.279,148.817 -161.304,148.817c-89.025,0 -161.304,-66.683 -161.304,-148.817c0,-82.133 72.279,-148.817 161.304,-148.817Z" style="fill:#c68f39;"/><path d="M4681.254,3189.696c89.025,0 161.304,66.683 161.304,148.817c0,82.133 -72.279,148.817 -161.304,148.817c-89.025,0 -161.304,-66.683 -161.304,-148.817c0,-82.133 72.279,-148.817 161.304,-148.817Z" style="fill:#c68f39;"/><path d="M4681.254,2388.383c89.025,0 161.304,66.683 161.304,148.817c0,82.133 -72.279,148.817 -161.304,148.817c-89.025,0 -161.304,-66.683 -161.304,-148.817c0,-82.133 72.279,-148.817 161.304,-148.817Z" style="fill:#c68f39;"/><path d="M4681.254,2388.383c89.025,0 161.304,66.683 161.304,148.817c0,82.133 -72.279,148.817 -161.304,148.817c-89.025,0 -161.304,-66.683 -161.304,-148.817c0,-82.133 72.279,-148.817 161.304,-148.817Z" style="fill:#c68f39;"/><path d="M4681.254,2388.383c89.025,0 161.304,66.683 161.304,148.817c0,82.133 -72.279,148.817 -161.304,148.817c-89.025,0 -161.304,-66.683 -161.304,-148.817c0,-82.133 72.279,-148.817 161.304,-148.817Z" style="fill:#c68f39;"/><path d="M4681.254,2388.383c89.025,0 161.304,66.683 161.304,148.817c0,82.133 -72.279,148.817 -161.304,148.817c-89.025,0 -161.304,-66.683 -161.304,-148.817c0,-82.133 72.279,-148.817 161.304,-148.817Z" style="fill:#c68f39;"/><path d="M4681.254,1598.513c89.025,0 161.304,66.683 161.304,148.817c0,82.133 -72.279,148.817 -161.304,148.817c-89.025,0 -161.304,-66.683 -161.304,-148.817c0,-82.133 72.279,-148.817 161.304,-148.817Z" style="fill:#c68f39;"/><path d="M4681.254,1598.513c89.025,0 161.304,66.683 161.304,148.817c0,82.133 -72.279,148.817 -161.304,148.817c-89.025,0 -161.304,-66.683 -161.304,-148.817c0,-82.133 72.279,-148.817 161.304,-148.817Z" style="fill:#c68f39;"/><path d="M4681.254,1598.513c89.025,0 161.304,66.683 161.304,148.817c0,82.133 -72.279,148.817 -161.304,148.817c-89.025,0 -161.304,-66.683 -161.304,-148.817c0,-82.133 72.279,-148.817 161.304,-148.817Z" style="fill:#c68f39;"/><path d="M4681.254,1598.513c89.025,0 161.304,66.683 161.304,148.817c0,82.133 -72.279,148.817 -161.304,148.817c-89.025,0 -161.304,-66.683 -161.304,-148.817c0,-82.133 72.279,-148.817 161.304,-148.817Z" style="fill:#c68f39;"/><path d="M4681.254,808.638c89.025,0 161.304,66.683 161.304,148.817c0,82.146 -72.279,148.829 -161.304,148.829c-89.025,0 -161.304,-66.683 -161.304,-148.829c0,-82.133 72.279,-148.817 161.304,-148.817Z" style="fill:#c68f39;"/><path d="M4681.254,808.638c89.025,0 161.304,66.683 161.304,148.817c0,82.146 -72.279,148.829 -161.304,148.829c-89.025,0 -161.304,-66.683 -161.304,-148.829c0,-82.133 72.279,-148.817 161.304,-148.817Z" style="fill:#c68f39;"/><path d="M4681.254,808.638c89.025,0 161.304,66.683 161.304,148.817c0,82.146 -72.279,148.829 -161.304,148.829c-89.025,0 -161.304,-66.683 -161.304,-148.829c0,-82.133 72.279,-148.817 161.304,-148.817Z" style="fill:#c68f39;"/><path d="M4681.254,808.638c89.025,0 161.304,66.683 161.304,148.817c0,82.146 -72.279,148.829 -161.304,148.829c-89.025,0 -161.304,-66.683 -161.304,-148.829c0,-82.133 72.279,-148.817 161.304,-148.817Z" style="fill:#c68f39;"/><path d="M653.108,4792.338c89.025,0 161.292,66.683 161.292,148.817c0,82.133 -72.267,148.817 -161.292,148.817c-89.025,0 -161.304,-66.683 -161.304,-148.817c0,-82.133 72.279,-148.817 161.304,-148.817Z" style="fill:#c68f39;"/><path d="M653.108,4792.338c89.025,0 161.292,66.683 161.292,148.817c0,82.133 -72.267,148.817 -161.292,148.817c-89.025,0 -161.304,-66.683 -161.304,-148.817c0,-82.133 72.279,-148.817 161.304,-148.817Z" style="fill:#c68f39;"/><path d="M653.108,4792.338c89.025,0 161.292,66.683 161.292,148.817c0,82.133 -72.267,148.817 -161.292,148.817c-89.025,0 -161.304,-66.683 -161.304,-148.817c0,-82.133 72.279,-148.817 161.304,-148.817Z" style="fill:#c68f39;"/><path d="M653.108,4792.338c89.025,0 161.292,66.683 161.292,148.817c0,82.133 -72.267,148.817 -161.292,148.817c-89.025,0 -161.304,-66.683 -161.304,-148.817c0,-82.133 72.279,-148.817 161.304,-148.817Z" style="fill:#c68f39;"/><path d="M653.108,3991.021c89.025,0 161.292,66.683 161.292,148.829c0,82.121 -72.267,148.804 -161.292,148.804c-89.025,0 -161.304,-66.683 -161.304,-148.804c0,-82.146 72.279,-148.829 161.304,-148.829Z" style="fill:#c68f39;"/><path d="M653.108,3991.021c89.025,0 161.292,66.683 161.292,148.829c0,82.121 -72.267,148.804 -161.292,148.804c-89.025,0 -161.304,-66.683 -161.304,-148.804c0,-82.146 72.279,-148.829 161.304,-148.829Z" style="fill:#c68f39;"/><path d="M653.108,3991.021c89.025,0 161.292,66.683 161.292,148.829c0,82.121 -72.267,148.804 -161.292,148.804c-89.025,0 -161.304,-66.683 -161.304,-148.804c0,-82.146 72.279,-148.829 161.304,-148.829Z" style="fill:#c68f39;"/><path d="M653.108,3991.021c89.025,0 161.292,66.683 161.292,148.829c0,82.121 -72.267,148.804 -161.292,148.804c-89.025,0 -161.304,-66.683 -161.304,-148.804c0,-82.146 72.279,-148.829 161.304,-148.829Z" style="fill:#c68f39;"/><path d="M653.108,3189.696c89.025,0 161.292,66.683 161.292,148.817c0,82.133 -72.267,148.817 -161.292,148.817c-89.025,0 -161.304,-66.683 -161.304,-148.817c0,-82.133 72.279,-148.817 161.304,-148.817Z" style="fill:#c68f39;"/><path d="M653.108,3189.696c89.025,0 161.292,66.683 161.292,148.817c0,82.133 -72.267,148.817 -161.292,148.817c-89.025,0 -161.304,-66.683 -161.304,-148.817c0,-82.133 72.279,-148.817 161.304,-148.817Z" style="fill:#c68f39;"/><path d="M653.108,3189.696c89.025,0 161.292,66.683 161.292,148.817c0,82.133 -72.267,148.817 -161.292,148.817c-89.025,0 -161.304,-66.683 -161.304,-148.817c0,-82.133 72.279,-148.817 161.304,-148.817Z" style="fill:#c68f39;"/><path d="M653.108,3189.696c89.025,0 161.292,66.683 161.292,148.817c0,82.133 -72.267,148.817 -161.292,148.817c-89.025,0 -161.304,-66.683 -161.304,-148.817c0,-82.133 72.279,-148.817 161.304,-148.817Z" style="fill:#c68f39;"/><path d="M653.108,2388.383c89.025,0 161.292,66.683 161.292,148.817c0,82.133 -72.267,148.817 -161.292,148.817c-89.025,0 -161.304,-66.683 -161.304,-148.817c0,-82.133 72.279,-148.817 161.304,-148.817Z" style="fill:#c68f39;"/><path d="M653.108,2388.383c89.025,0 161.292,66.683 161.292,148.817c0,82.133 -72.267,148.817 -161.292,148.817c-89.025,0 -161.304,-66.683 -161.304,-148.817c0,-82.133 72.279,-148.817 161.304,-148.817Z" style="fill:#c68f39;"/><path d="M653.108,2388.383c89.025,0 161.292,66.683 161.292,148.817c0,82.133 -72.267,148.817 -161.292,148.817c-89.025,0 -161.304,-66.683 -161.304,-148.817c0,-82.133 72.279,-148.817 161.304,-148.817Z" style="fill:#c68f39;"/><path d="M653.108,2388.383c89.025,0 161.292,66.683 161.292,148.817c0,82.133 -72.267,148.817 -161.292,148.817c-89.025,0 -161.304,-66.683 -161.304,-148.817c0,-82.133 72.279,-148.817 161.304,-148.817Z" style="fill:#c68f39;"/><path d="M653.108,1598.513c89.025,0 161.292,66.683 161.292,148.817c0,82.133 -72.267,148.817 -161.292,148.817c-89.025,0 -161.304,-66.683 -161.304,-148.817c0,-82.133 72.279,-148.817 161.304,-148.817Z" style="fill:#c68f39;"/><path d="M653.108,1598.513c89.025,0 161.292,66.683 161.292,148.817c0,82.133 -72.267,148.817 -161.292,148.817c-89.025,0 -161.304,-66.683 -161.304,-148.817c0,-82.133 72.279,-148.817 161.304,-148.817Z" style="fill:#c68f39;"/><path d="M653.108,1598.513c89.025,0 161.292,66.683 161.292,148.817c0,82.133 -72.267,148.817 -161.292,148.817c-89.025,0 -161.304,-66.683 -161.304,-148.817c0,-82.133 72.279,-148.817 161.304,-148.817Z" style="fill:#c68f39;"/><path d="M653.108,1598.513c89.025,0 161.292,66.683 161.292,148.817c0,82.133 -72.267,148.817 -161.292,148.817c-89.025,0 -161.304,-66.683 -161.304,-148.817c0,-82.133 72.279,-148.817 161.304,-148.817Z" style="fill:#c68f39;"/><path d="M653.108,808.638c89.025,0 161.292,66.683 161.292,148.817c0,82.146 -72.267,148.829 -161.292,148.829c-89.025,0 -161.304,-66.683 -161.304,-148.829c0,-82.133 72.279,-148.817 161.304,-148.817Z" style="fill:#c68f39;"/><path d="M653.108,808.638c89.025,0 161.292,66.683 161.292,148.817c0,82.146 -72.267,148.829 -161.292,148.829c-89.025,0 -161.304,-66.683 -161.304,-148.829c0,-82.133 72.279,-148.817 161.304,-148.817Z" style="fill:#c68f39;"/><path d="M653.108,808.638c89.025,0 161.292,66.683 161.292,148.817c0,82.146 -72.267,148.829 -161.292,148.829c-89.025,0 -161.304,-66.683 -161.304,-148.829c0,-82.133 72.279,-148.817 161.304,-148.817Z" style="fill:#c68f39;"/><path d="M653.108,808.638c89.025,0 161.292,66.683 161.292,148.817c0,82.146 -72.267,148.829 -161.292,148.829c-89.025,0 -161.304,-66.683 -161.304,-148.829c0,-82.133 72.279,-148.817 161.304,-148.817Z" style="fill:#c68f39;"/><path d="M1484.425,4792.338c89.025,0 161.304,66.683 161.304,148.817c0,82.133 -72.279,148.817 -161.304,148.817c-89.025,0 -161.304,-66.683 -161.304,-148.817c0,-82.133 72.279,-148.817 161.304,-148.817Z" style="fill:#c68f39;"/><path d="M1484.425,4792.338c89.025,0 161.304,66.683 161.304,148.817c0,82.133 -72.279,148.817 -161.304,148.817c-89.025,0 -161.304,-66.683 -161.304,-148.817c0,-82.133 72.279,-148.817 161.304,-148.817Z" style="fill:#c68f39;"/><path d="M1484.425,4792.338c89.025,0 161.304,66.683 161.304,148.817c0,82.133 -72.279,148.817 -161.304,148.817c-89.025,0 -161.304,-66.683 -161.304,-148.817c0,-82.133 72.279,-148.817 161.304,-148.817Z" style="fill:#c68f39;"/><path d="M1484.425,4792.338c89.025,0 161.304,66.683 161.304,148.817c0,82.133 -72.279,148.817 -161.304,148.817c-89.025,0 -161.304,-66.683 -161.304,-148.817c0,-82.133 72.279,-148.817 161.304,-148.817Z" style="fill:#c68f39;"/><path d="M1484.425,3991.021c89.025,0 161.304,66.683 161.304,148.829c0,82.121 -72.279,148.804 -161.304,148.804c-89.025,0 -161.304,-66.683 -161.304,-148.804c0,-82.146 72.279,-148.829 161.304,-148.829Z" style="fill:#c68f39;"/><path d="M1484.425,3991.021c89.025,0 161.304,66.683 161.304,148.829c0,82.121 -72.279,148.804 -161.304,148.804c-89.025,0 -161.304,-66.683 -161.304,-148.804c0,-82.146 72.279,-148.829 161.304,-148.829Z" style="fill:#c68f39;"/><path d="M1484.425,3991.021c89.025,0 161.304,66.683 161.304,148.829c0,82.121 -72.279,148.804 -161.304,148.804c-89.025,0 -161.304,-66.683 -161.304,-148.804c0,-82.146 72.279,-148.829 161.304,-148.829Z" style="fill:#c68f39;"/><path d="M1484.425,3991.021c89.025,0 161.304,66.683 161.304,148.829c0,82.121 -72.279,148.804 -161.304,148.804c-89.025,0 -161.304,-66.683 -161.304,-148.804c0,-82.146 72.279,-148.829 161.304,-148.829Z" style="fill:#c68f39;"/><path d="M1484.425,3189.696c89.025,0 161.304,66.683 161.304,148.817c0,82.133 -72.279,148.817 -161.304,148.817c-89.025,0 -161.304,-66.683 -161.304,-148.817c0,-82.133 72.279,-148.817 161.304,-148.817Z" style="fill:#c68f39;"/><path d="M1484.425,3189.696c89.025,0 161.304,66.683 161.304,148.817c0,82.133 -72.279,148.817 -161.304,148.817c-89.025,0 -161.304,-66.683 -161.304,-148.817c0,-82.133 72.279,-148.817 161.304,-148.817Z" style="fill:#c68f39;"/><path d="M1484.425,3189.696c89.025,0 161.304,66.683 161.304,148.817c0,82.133 -72.279,148.817 -161.304,148.817c-89.025,0 -161.304,-66.683 -161.304,-148.817c0,-82.133 72.279,-148.817 161.304,-148.817Z" style="fill:#c68f39;"/><path d="M1484.425,3189.696c89.025,0 161.304,66.683 161.304,148.817c0,82.133 -72.279,148.817 -161.304,148.817c-89.025,0 -161.304,-66.683 -161.304,-148.817c0,-82.133 72.279,-148.817 161.304,-148.817Z" style="fill:#c68f39;"/><path d="M1484.425,2388.383c89.025,0 161.304,66.683 161.304,148.817c0,82.133 -72.279,148.817 -161.304,148.817c-89.025,0 -161.304,-66.683 -161.304,-148.817c0,-82.133 72.279,-148.817 161.304,-148.817Z" style="fill:#c68f39;"/><path d="M1484.425,2388.383c89.025,0 161.304,66.683 161.304,148.817c0,82.133 -72.279,148.817 -161.304,148.817c-89.025,0 -161.304,-66.683 -161.304,-148.817c0,-82.133 72.279,-148.817 161.304,-148.817Z" style="fill:#c68f39;"/><path d="M1484.425,2388.383c89.025,0 161.304,66.683 161.304,148.817c0,82.133 -72.279,148.817 -161.304,148.817c-89.025,0 -161.304,-66.683 -161.304,-148.817c0,-82.133 72.279,-148.817 161.304,-148.817Z" style="fill:#c68f39;"/><path d="M1484.425,2388.383c89.025,0 161.304,66.683 161.304,148.817c0,82.133 -72.279,148.817 -161.304,148.817c-89.025,0 -161.304,-66.683 -161.304,-148.817c0,-82.133 72.279,-148.817 161.304,-148.817Z" style="fill:#c68f39;"/><path d="M1484.425,1598.513c89.025,0 161.304,66.683 161.304,148.817c0,82.133 -72.279,148.817 -161.304,148.817c-89.025,0 -161.304,-66.683 -161.304,-148.817c0,-82.133 72.279,-148.817 161.304,-148.817Z" style="fill:#c68f39;"/><path d="M1484.425,1598.513c89.025,0 161.304,66.683 161.304,148.817c0,82.133 -72.279,148.817 -161.304,148.817c-89.025,0 -161.304,-66.683 -161.304,-148.817c0,-82.133 72.279,-148.817 161.304,-148.817Z" style="fill:#c68f39;"/><path d="M1484.425,1598.513c89.025,0 161.304,66.683 161.304,148.817c0,82.133 -72.279,148.817 -161.304,148.817c-89.025,0 -161.304,-66.683 -161.304,-148.817c0,-82.133 72.279,-148.817 161.304,-148.817Z" style="fill:#c68f39;"/><path d="M1484.425,1598.513c89.025,0 161.304,66.683 161.304,148.817c0,82.133 -72.279,148.817 -161.304,148.817c-89.025,0 -161.304,-66.683 -161.304,-148.817c0,-82.133 72.279,-148.817 161.304,-148.817Z" style="fill:#c68f39;"/><path d="M1484.425,808.638c89.025,0 161.304,66.683 161.304,148.817c0,82.146 -72.279,148.829 -161.304,148.829c-89.025,0 -161.304,-66.683 -161.304,-148.829c0,-82.133 72.279,-148.817 161.304,-148.817Z" style="fill:#c68f39;"/><path d="M1484.425,808.638c89.025,0 161.304,66.683 161.304,148.817c0,82.146 -72.279,148.829 -161.304,148.829c-89.025,0 -161.304,-66.683 -161.304,-148.829c0,-82.133 72.279,-148.817 161.304,-148.817Z" style="fill:#c68f39;"/><path d="M1484.425,808.638c89.025,0 161.304,66.683 161.304,148.817c0,82.146 -72.279,148.829 -161.304,148.829c-89.025,0 -161.304,-66.683 -161.304,-148.829c0,-82.133 72.279,-148.817 161.304,-148.817Z" style="fill:#c68f39;"/><path d="M1484.425,808.638c89.025,0 161.304,66.683 161.304,148.817c0,82.146 -72.279,148.829 -161.304,148.829c-89.025,0 -161.304,-66.683 -161.304,-148.829c0,-82.133 72.279,-148.817 161.304,-148.817Z" style="fill:#c68f39;"/><path d="M2266.121,4792.338c89.025,0 161.304,66.683 161.304,148.817c0,82.133 -72.279,148.817 -161.304,148.817c-89.025,0 -161.304,-66.683 -161.304,-148.817c0,-82.133 72.279,-148.817 161.304,-148.817Z" style="fill:#c68f39;"/><path d="M2266.121,4792.338c89.025,0 161.304,66.683 161.304,148.817c0,82.133 -72.279,148.817 -161.304,148.817c-89.025,0 -161.304,-66.683 -161.304,-148.817c0,-82.133 72.279,-148.817 161.304,-148.817Z" style="fill:#c68f39;"/><path d="M2266.121,4792.338c89.025,0 161.304,66.683 161.304,148.817c0,82.133 -72.279,148.817 -161.304,148.817c-89.025,0 -161.304,-66.683 -161.304,-148.817c0,-82.133 72.279,-148.817 161.304,-148.817Z" style="fill:#c68f39;"/><path d="M2266.121,4792.338c89.025,0 161.304,66.683 161.304,148.817c0,82.133 -72.279,148.817 -161.304,148.817c-89.025,0 -161.304,-66.683 -161.304,-148.817c0,-82.133 72.279,-148.817 161.304,-148.817Z" style="fill:#c68f39;"/><path d="M2266.121,3991.021c89.025,0 161.304,66.683 161.304,148.829c0,82.121 -72.279,148.804 -161.304,148.804c-89.025,0 -161.304,-66.683 -161.304,-148.804c0,-82.146 72.279,-148.829 161.304,-148.829Z" style="fill:#c68f39;"/><path d="M2266.121,3991.021c89.025,0 161.304,66.683 161.304,148.829c0,82.121 -72.279,148.804 -161.304,148.804c-89.025,0 -161.304,-66.683 -161.304,-148.804c0,-82.146 72.279,-148.829 161.304,-148.829Z" style="fill:#c68f39;"/><path d="M2266.121,3991.021c89.025,0 161.304,66.683 161.304,148.829c0,82.121 -72.279,148.804 -161.304,148.804c-89.025,0 -161.304,-66.683 -161.304,-148.804c0,-82.146 72.279,-148.829 161.304,-148.829Z" style="fill:#c68f39;"/><path d="M2266.121,3991.021c89.025,0 161.304,66.683 161.304,148.829c0,82.121 -72.279,148.804 -161.304,148.804c-89.025,0 -161.304,-66.683 -161.304,-148.804c0,-82.146 72.279,-148.829 161.304,-148.829Z" style="fill:#c68f39;"/><path d="M2266.121,3189.696c89.025,0 161.304,66.683 161.304,148.817c0,82.133 -72.279,148.817 -161.304,148.817c-89.025,0 -161.304,-66.683 -161.304,-148.817c0,-82.133 72.279,-148.817 161.304,-148.817Z" style="fill:#c68f39;"/><path d="M2266.121,3189.696c89.025,0 161.304,66.683 161.304,148.817c0,82.133 -72.279,148.817 -161.304,148.817c-89.025,0 -161.304,-66.683 -161.304,-148.817c0,-82.133 72.279,-148.817 161.304,-148.817Z" style="fill:#c68f39;"/><path d="M2266.121,3189.696c89.025,0 161.304,66.683 161.304,148.817c0,82.133 -72.279,148.817 -161.304,148.817c-89.025,0 -161.304,-66.683 -161.304,-148.817c0,-82.133 72.279,-148.817 161.304,-148.817Z" style="fill:#c68f39;"/><path d="M2266.121,3189.696c89.025,0 161.304,66.683 161.304,148.817c0,82.133 -72.279,148.817 -161.304,148.817c-89.025,0 -161.304,-66.683 -161.304,-148.817c0,-82.133 72.279,-148.817 161.304,-148.817Z" style="fill:#c68f39;"/><path d="M2266.121,2388.383c89.025,0 161.304,66.683 161.304,148.817c0,82.133 -72.279,148.817 -161.304,148.817c-89.025,0 -161.304,-66.683 -161.304,-148.817c0,-82.133 72.279,-148.817 161.304,-148.817Z" style="fill:#c68f39;"/><path d="M2266.121,2388.383c89.025,0 161.304,66.683 161.304,148.817c0,82.133 -72.279,148.817 -161.304,148.817c-89.025,0 -161.304,-66.683 -161.304,-148.817c0,-82.133 72.279,-148.817 161.304,-148.817Z" style="fill:#c68f39;"/><path d="M2266.121,2388.383c89.025,0 161.304,66.683 161.304,148.817c0,82.133 -72.279,148.817 -161.304,148.817c-89.025,0 -161.304,-66.683 -161.304,-148.817c0,-82.133 72.279,-148.817 161.304,-148.817Z" style="fill:#c68f39;"/><path d="M2266.121,2388.383c89.025,0 161.304,66.683 161.304,148.817c0,82.133 -72.279,148.817 -161.304,148.817c-89.025,0 -161.304,-66.683 -161.304,-148.817c0,-82.133 72.279,-148.817 161.304,-148.817Z" style="fill:#c68f39;"/><path d="M2266.121,1598.513c89.025,0 161.304,66.683 161.304,148.817c0,82.133 -72.279,148.817 -161.304,148.817c-89.025,0 -161.304,-66.683 -161.304,-148.817c0,-82.133 72.279,-148.817 161.304,-148.817Z" style="fill:#c68f39;"/><path d="M2266.121,1598.513c89.025,0 161.304,66.683 161.304,148.817c0,82.133 -72.279,148.817 -161.304,148.817c-89.025,0 -161.304,-66.683 -161.304,-148.817c0,-82.133 72.279,-148.817 161.304,-148.817Z" style="fill:#c68f39;"/><path d="M2266.121,1598.513c89.025,0 161.304,66.683 161.304,148.817c0,82.133 -72.279,148.817 -161.304,148.817c-89.025,0 -161.304,-66.683 -161.304,-148.817c0,-82.133 72.279,-148.817 161.304,-148.817Z" style="fill:#c68f39;"/><path d="M2266.121,1598.513c89.025,0 161.304,66.683 161.304,148.817c0,82.133 -72.279,148.817 -161.304,148.817c-89.025,0 -161.304,-66.683 -161.304,-148.817c0,-82.133 72.279,-148.817 161.304,-148.817Z" style="fill:#c68f39;"/><path d="M2266.121,808.638c89.025,0 161.304,66.683 161.304,148.817c0,82.146 -72.279,148.829 -161.304,148.829c-89.025,0 -161.304,-66.683 -161.304,-148.829c0,-82.133 72.279,-148.817 161.304,-148.817Z" style="fill:#c68f39;"/><path d="M2266.121,808.638c89.025,0 161.304,66.683 161.304,148.817c0,82.146 -72.279,148.829 -161.304,148.829c-89.025,0 -161.304,-66.683 -161.304,-148.829c0,-82.133 72.279,-148.817 161.304,-148.817Z" style="fill:#c68f39;"/><path d="M2266.121,808.638c89.025,0 161.304,66.683 161.304,148.817c0,82.146 -72.279,148.829 -161.304,148.829c-89.025,0 -161.304,-66.683 -161.304,-148.829c0,-82.133 72.279,-148.817 161.304,-148.817Z" style="fill:#c68f39;"/><path d="M2266.121,808.638c89.025,0 161.304,66.683 161.304,148.817c0,82.146 -72.279,148.829 -161.304,148.829c-89.025,0 -161.304,-66.683 -161.304,-148.829c0,-82.133 72.279,-148.817 161.304,-148.817Z" style="fill:#c68f39;"/><g><g transform="matrix(1,0,0,0.947367,0,269.739293)"><text x="7574.688px" y="5124.908px" style="font-family:'Arial-BoldMT', 'Arial', sans-serif;font-weight:700;font-size:6291.858px;fill:#fff;">ArQ</text></g></g><g><g transform="matrix(1,0,0,0.947367,0,66.629215)"><text x="19039.596px" y="1265.921px" style="font-family:'Arial-BoldMT', 'Arial', sans-serif;font-weight:700;font-size:1040.479px;fill:#fff;">TM</text></g></g></g></svg>